<?xml version="1.0" encoding="utf-8"?>
<!-- Generator: Adobe Illustrator 26.0.1, SVG Export Plug-In . SVG Version: 6.00 Build 0)  -->
<svg version="1.1" id="Слой_1" xmlns="http://www.w3.org/2000/svg" xmlns:xlink="http://www.w3.org/1999/xlink" x="0px" y="0px"
	 viewBox="0 0 1000 1000" style="enable-background:new 0 0 1000 1000;" xml:space="preserve">
<style type="text/css">
	.st0{fill:#FFFFFF;}
	.st1{fill:#47A898;}
</style>
<path class="st0" d="M878.09,219.78c9.24,0,18.21,0.72,26.18,6.2c17.1,11.76,23.48,27.73,18.12,48.36
	c-9.66,37.19-19.81,74.25-29.68,111.39c-16.86,63.4-33.62,126.83-50.51,190.22c-12.24,45.96-24.43,91.93-37.01,137.8
	c-7.18,26.19-21.18,36.27-50.1,36.5c-31.6,0.25-63.21,0.01-94.81,0.01c-73.51-0.01-147.02,0-220.53,0c0,0.01,0,0.02,0,0.03
	c-105.36,0-210.71-0.08-316.07,0.07c-20.08,0.03-35.62-7.25-44.59-25.73c-5.08-10.47-3.55-21.6-0.73-32.37
	c8.38-31.96,17.05-63.84,25.55-95.76c13.81-51.84,27.55-103.7,41.39-155.54c13.05-48.89,26.21-97.75,39.3-146.62
	c3.45-12.9,6.73-25.85,10.25-38.73c6.7-24.53,20.98-35.66,46.17-35.67 M445.35,693.09c0-0.01,0-0.02,0-0.03
	c52.46,0,104.91,0,157.37,0c43.56,0,87.11,0.04,130.67,0c11.63-0.01,13.38-1.46,16.58-12.86c1.39-4.97,2.78-9.93,4.1-14.92
	c21.11-79.25,42.2-158.49,63.31-237.74c12.18-45.74,24.46-91.46,36.52-137.24c2.96-11.26,0.95-13.66-10.4-13.66
	c-192.26-0.02-384.51-0.03-576.77-0.01c-11.66,0-13.61,1.46-16.65,12.77c-11.46,42.54-22.89,85.08-34.21,127.66
	c-14.44,54.36-28.74,108.76-43.14,163.13c-8.76,33.07-17.75,66.08-26.33,99.2c-3.06,11.8-1.19,13.7,10.92,13.7
	C253.33,693.09,349.34,693.09,445.35,693.09z"/>
<g>
	<path class="st0" d="M342.2,337.03l-35.36,132.06c-0.96,3.13-2.65,6.01-5.53,8.18c-2.89,2.16-6.01,3.37-9.14,3.37
		c-6.01,0-8.9-2.89-8.9-8.66c0-0.96,0.24-1.92,0.48-2.89l35.36-132.06h-22.37c-6.01,0-8.9-2.89-8.9-8.66c0-3.61,1.44-6.98,4.57-9.86
		c3.13-3.13,6.74-4.57,10.34-4.57h68.32c6.01,0,8.9,2.89,8.9,8.42c0,3.61-1.68,6.98-4.81,10.1c-3.13,3.13-6.74,4.57-10.34,4.57
		H342.2z"/>
	<path class="st0" d="M381.16,479.92c-9.14,0-16.36-2.65-21.65-7.7c-5.53-5.05-8.18-11.79-8.18-20.21c0-3.61,0.48-7.22,1.44-10.83
		l10.82-39.69c3.13-11.07,8.9-20.21,18.28-27.66c9.38-7.46,19.48-11.07,30.55-11.07h6.74c8.9,0,16.12,2.65,21.65,7.7
		s8.18,11.79,8.18,20.21c0,3.61-0.72,7.22-1.68,10.83l-5.29,19.73c-0.96,3.13-2.65,6.01-5.53,8.18s-5.77,3.37-8.9,3.37h-49.31
		l-2.41,8.42c-0.48,1.2-0.48,2.65-0.48,4.09c0,3.37,1.2,6.01,3.37,8.18s5.05,3.37,8.66,3.37h33.68c6.01,0,8.9,2.89,8.9,8.42
		c0,3.61-1.44,6.98-4.57,10.1c-3.13,3.13-6.74,4.57-10.58,4.57H381.16z M424.95,397.41c0-3.37-1.2-6.01-3.37-8.18
		c-2.16-2.17-5.05-3.37-8.66-3.37h-6.5c-4.33,0-8.42,1.44-12.27,4.57c-3.85,3.13-6.25,6.74-7.46,11.07l-2.41,8.18h37.77l2.41-8.18
		C424.95,400.29,424.95,398.85,424.95,397.41z"/>
	<path class="st0" d="M511.3,471.26c0-0.96,0-1.92,0.24-2.89l18.04-66.87c0.24-1.2,0.48-2.65,0.48-4.09c0-3.37-0.96-6.01-3.13-8.18
		s-5.29-3.37-8.9-3.37h-22.13l-22.13,82.51c-0.72,3.13-2.65,5.77-5.53,7.94c-2.89,2.41-5.77,3.61-8.9,3.61
		c-6.01,0-8.9-2.89-8.9-8.66c0-0.96,0-1.92,0.24-2.89l38.73-143.85c0.96-3.13,2.65-6.01,5.29-8.18c2.89-2.17,6.01-3.37,9.14-3.37
		c6.01,0,8.9,2.89,8.9,8.66c0,0.96-0.24,1.92-0.48,2.89l-10.1,38.25h22.13c9.14,0,16.36,2.65,21.65,7.7
		c5.53,5.05,8.18,11.79,8.18,20.21c0,3.61-0.48,7.22-1.44,10.83l-18.04,66.87c-0.72,3.13-2.65,5.77-5.53,7.94
		c-2.89,2.41-5.77,3.61-8.9,3.61C514.19,479.92,511.3,477.03,511.3,471.26z"/>
	<path class="st0" d="M630.37,471.26c0-0.96,0-1.92,0.24-2.89l18.04-66.87c0.24-1.2,0.48-2.65,0.48-4.09c0-3.37-1.2-6.01-3.37-8.18
		c-2.16-2.17-5.05-3.37-8.66-3.37h-6.5c-4.33,0-8.42,1.44-12.27,4.57c-3.85,3.13-6.25,6.74-7.46,11.07l-18.04,66.87
		c-0.72,3.13-2.65,5.77-5.53,7.94c-2.89,2.41-6.01,3.61-9.14,3.61c-5.77,0-8.66-2.89-8.66-8.66c0-0.96,0-1.92,0.24-2.89l25.26-94.06
		c0.72-3.13,2.65-5.77,5.53-7.94c2.89-2.41,6.01-3.61,9.14-3.61c3.61,0,6.01,1.44,7.7,4.33c6.5-2.89,12.75-4.33,19.24-4.33h6.74
		c8.9,0,16.12,2.65,21.65,7.7s8.18,11.79,8.18,20.21c0,3.61-0.72,7.22-1.68,10.83l-17.8,66.87c-0.72,3.13-2.65,5.77-5.53,7.94
		c-2.89,2.41-6.01,3.61-9.14,3.61C633.26,479.92,630.37,477.03,630.37,471.26z"/>
	<path class="st0" d="M717.21,479.92c-9.14,0-16.36-2.65-21.65-7.7c-5.53-5.05-8.18-11.79-8.18-20.21c0-3.61,0.48-7.22,1.44-10.83
		l10.82-39.69c3.13-11.07,8.9-20.21,18.28-27.66c9.38-7.46,19.48-11.07,30.55-11.07h6.74c9.14,0,16.36,2.65,21.65,7.7
		c5.53,5.05,8.18,11.79,8.18,20.21c0,3.61-0.72,7.22-1.68,10.83l-10.58,39.69c-2.89,11.07-8.9,20.21-18.28,27.66
		c-9.38,7.46-19.48,11.07-30.55,11.07H717.21z M760.99,397.41c0-3.37-1.2-6.01-3.37-8.18c-2.16-2.17-5.05-3.37-8.66-3.37h-6.5
		c-4.33,0-8.42,1.44-12.27,4.57c-3.85,3.13-6.25,6.74-7.46,11.07l-10.82,39.69c-0.24,1.2-0.48,2.65-0.48,4.09
		c0,3.37,1.2,6.01,3.37,8.18s5.05,3.37,8.66,3.37h6.5c4.33,0,8.42-1.44,12.27-4.57c3.85-3.13,6.25-6.74,7.46-11.07l10.82-39.69
		C760.75,400.29,760.99,398.85,760.99,397.41z"/>
</g>
<g>
	<path class="st0" d="M242.68,657.67c-8.28,0-15-2.46-20.14-7.16s-7.61-10.97-7.61-18.8c0-3.36,0.67-6.71,1.57-10.07l22.16-83.26
		c2.69-10.3,8.5-18.8,17.23-25.74c8.73-6.94,18.13-10.3,28.43-10.3h38.28c5.6,0,8.28,2.69,8.28,8.06c0,3.36-1.57,6.49-4.48,9.18
		c-2.91,2.91-6.27,4.25-9.62,4.25h-38.28c-3.81,0-7.61,1.34-11.19,4.25c-3.81,2.91-6.04,6.27-7.16,10.3l-22.16,83.26
		c-0.45,1.12-0.67,2.46-0.67,3.8c0,3.13,1.12,5.6,3.13,7.61c2.01,2.01,4.7,3.13,8.06,3.13h38.27c5.6,0,8.28,2.69,8.28,7.83
		c0,3.36-1.57,6.49-4.48,9.4c-2.91,2.91-6.27,4.25-9.62,4.25H242.68z"/>
	<path class="st0" d="M390.4,548.67c5.6,0,8.28,2.69,8.28,8.06c0,3.36-1.34,6.49-4.25,9.18c-2.91,2.91-6.27,4.25-9.85,4.25
		c-4.7,0-9.4,1.79-13.65,5.15c-4.25,3.36-7.16,7.61-8.51,12.53l-15.89,59.09c-0.67,2.91-2.46,5.37-5.15,7.39
		c-2.69,2.24-5.6,3.36-8.5,3.36c-5.37,0-8.06-2.69-8.06-8.06c0-0.89,0-1.79,0.22-2.69l23.5-87.52c0.67-2.91,2.46-5.37,5.15-7.39
		c2.69-2.24,5.6-3.36,8.5-3.36c3.81,0,6.49,1.79,7.61,5.15C376.75,550.46,383.46,548.67,390.4,548.67z"/>
	<path class="st0" d="M460.23,653.64c-5.82,2.69-11.86,4.03-17.91,4.03h-6.27c-8.51,0-15.22-2.46-20.14-7.16
		c-5.15-4.7-7.61-10.97-7.61-18.8c0-3.36,0.45-6.71,1.34-10.07l10.07-36.93c2.91-10.3,8.28-18.8,17.01-25.74
		c8.73-6.94,18.13-10.3,28.43-10.3h6.27c6.04,0,11.42,1.34,15.89,4.03c2.91-2.69,6.04-4.03,9.4-4.03c5.37,0,8.06,2.69,8.06,8.06
		c0,0.9,0,1.79-0.22,2.69l-23.5,87.52c-0.67,2.91-2.46,5.37-5.15,7.39c-2.69,2.24-5.6,3.36-8.51,3.36
		C464.04,657.67,461.8,656.33,460.23,653.64z M476.8,580.9c0-3.13-1.12-5.6-3.13-7.61s-4.7-3.13-8.06-3.13h-6.04
		c-4.03,0-7.83,1.34-11.42,4.25s-5.82,6.27-6.94,10.3l-10.07,36.93c-0.22,1.12-0.45,2.46-0.45,3.8c0,3.13,1.12,5.6,3.13,7.61
		s4.7,3.13,8.06,3.13h6.04c4.03,0,7.83-1.34,11.42-4.25c3.58-2.91,5.82-6.27,6.94-10.3l10.07-36.93
		C476.57,583.58,476.8,582.24,476.8,580.9z"/>
	<path class="st0" d="M578.63,528.07c-3.81,2.91-6.04,6.27-7.16,10.3l-2.69,10.3h7.61c5.6,0,8.28,2.69,8.28,8.06
		c0,3.36-1.34,6.49-4.25,9.18c-2.91,2.91-6.27,4.25-9.85,4.25h-7.61l-20.59,76.77c-0.67,2.91-2.46,5.37-5.15,7.39
		c-2.69,2.24-5.37,3.36-8.28,3.36c-5.6,0-8.28-2.69-8.28-8.06c0-0.89,0-1.79,0.22-2.69l20.59-76.77h-2.91
		c-5.6,0-8.28-2.69-8.28-7.83c0-3.36,1.57-6.49,4.48-9.4c2.91-2.91,6.27-4.25,9.62-4.25h2.91l2.69-10.3
		c2.69-10.3,8.51-18.8,17.24-25.74c8.73-6.94,18.13-10.3,28.43-10.3c5.6,0,8.28,2.69,8.28,8.06c0,3.36-1.34,6.49-4.25,9.18
		c-2.91,2.91-6.27,4.25-10.07,4.25C584.01,523.82,582.22,525.17,578.63,528.07z"/>
	<path class="st0" d="M617.13,650.51c-5.15-4.7-7.61-10.97-7.61-18.8c0-3.36,0.67-6.71,1.57-10.07l13.65-51.48h-2.91
		c-5.6,0-8.28-2.69-8.28-7.83c0-3.36,1.57-6.49,4.48-9.4c2.91-2.91,6.27-4.25,9.62-4.25h2.91l9.4-35.59c0.9-2.91,2.69-5.6,5.15-7.61
		c2.69-2.01,5.6-3.13,8.5-3.13c5.6,0,8.28,2.69,8.28,8.06c0,0.9-0.22,1.79-0.45,2.69l-9.4,35.59h7.61c5.6,0,8.28,2.69,8.28,8.06
		c0,3.36-1.34,6.49-4.25,9.18c-2.91,2.91-6.27,4.25-9.85,4.25h-7.61l-13.65,51.48c-0.45,1.12-0.67,2.46-0.67,3.8
		c0,3.13,1.12,5.6,3.13,7.61c2.01,2.01,4.7,3.13,8.06,3.13c5.6,0,8.28,2.69,8.28,7.83c0,3.36-1.34,6.49-4.25,9.4
		c-2.91,2.91-6.27,4.25-9.85,4.25C628.99,657.67,622.28,655.21,617.13,650.51z"/>
</g>
</svg>
